<svg width="40" height="40" viewBox="0 0 40 40" fill="none" xmlns="http://www.w3.org/2000/svg">
  <rect width="40" height="40" rx="10" fill="url(#paint0_linear_logo)" />
  <path d="M11 29V11H21C23.2 11 25 12.8 25 15C25 16.1 24.55 17.1 23.8 17.8C24.55 18.5 25 19.5 25 20.6C25 22.8 23.2 24.6 21 24.6H13.5V29H11ZM13.5 22.3H21C21.9 22.3 22.6 21.6 22.6 20.7C22.6 19.8 21.9 19.1 21 19.1H13.5V22.3ZM13.5 16.5H21C21.9 16.5 22.6 15.8 22.6 14.9C22.6 14 21.9 13.3 21 13.3H13.5V16.5Z" fill="white"/>
  <path d="M22 29L28.5 11H31L37.5 29H34.8L33.6 25.5H25.9L24.7 29H22ZM26.8 22.8H32.7L29.75 14.5L26.8 22.8Z" fill="white"/>
  <defs>
    <linearGradient id="paint0_linear_logo" x1="0" y1="0" x2="40" y2="40" gradientUnits="userSpaceOnUse">
      <stop stop-color="#3b82f6" />
      <stop offset="1" stop-color="#1d4ed8" />
    </linearGradient>
  </defs>
</svg>
