<svg width="40" height="40" viewBox="0 0 40 40" fill="none" xmlns="http://www.w3.org/2000/svg">
  <rect width="40" height="40" rx="10" fill="url(#paint0_linear_logo)" />
  <path d="M12 28V12H20C22.2091 12 24 13.7909 24 16C24 17.1046 23.5523 18.1046 22.8284 18.8284C23.5523 19.5523 24 20.5523 24 21.6569C24 23.8659 22.2091 25.6569 20 25.6569H14.4V28H12ZM14.4 23.2569H20C20.8837 23.2569 21.6 22.5405 21.6 21.6569C21.6 20.7732 20.8837 20.0569 20 20.0569H14.4V23.2569ZM14.4 17.6569H20C20.8837 17.6569 21.6 16.9405 21.6 16.0569C21.6 15.1732 20.8837 14.4569 20 14.4569H14.4V17.6569ZM16.8 12H19.2V28H16.8V12Z" fill="white" fill-opacity="0.1"/>
  
  <path d="M12 12H20C22.2091 12 24 13.7909 24 16C24 17.1046 23.5523 18.1046 22.8284 18.8284C23.5523 19.5523 24 20.5523 24 21.6569C24 23.8659 22.2091 25.6569 20 25.6569H12V12ZM14.4 14.4V17.6H20C20.8837 17.6 21.6 16.8837 21.6 16C21.6 15.1163 20.8837 14.4 20 14.4H14.4ZM14.4 20V23.2H20C20.8837 23.2 21.6 22.4837 21.6 21.6C21.6 20.7163 20.8837 20 20 20H14.4Z" fill="white"/>
  
  <path d="M22 28L28 12L34 28H31.4L30.2 24.8H25.8L24.6 28H22ZM26.7 22.4H29.3L28 18.9L26.7 22.4Z" fill="white"/>
  
  <rect x="10" y="32" width="20" height="2" rx="1" fill="#3b82f6" fill-opacity="0.5" />
  
  <defs>
    <linearGradient id="paint0_linear_logo" x1="0" y1="0" x2="40" y2="40" gradientUnits="userSpaceOnUse">
      <stop stop-color="#3b82f6" />
      <stop offset="1" stop-color="#1d4ed8" />
    </linearGradient>
  </defs>
</svg>
